<?xml version="1.0" encoding="UTF-8"?>
<!DOCTYPE svg PUBLIC "-//W3C//DTD SVG 1.1//EN" "http://www.w3.org/Graphics/SVG/1.1/DTD/svg11.dtd">
<svg xmlns="http://www.w3.org/2000/svg" version="1.1" width="500px" height="500px" style="shape-rendering:geometricPrecision; text-rendering:geometricPrecision; image-rendering:optimizeQuality; fill-rule:evenodd; clip-rule:evenodd" xmlns:xlink="http://www.w3.org/1999/xlink">
<g><path style="opacity:0.992" fill="#fefefe" d="M 226.5,7.5 C 301.684,3.6053 365.851,27.9386 419,80.5C 479.886,148.391 498.553,226.724 475,315.5C 448.625,393.208 396.792,445.708 319.5,473C 214.538,500.737 127.038,473.57 57,391.5C 9.74369,325.985 -3.25631,253.985 18,175.5C 44.3606,97.8063 96.194,45.3063 173.5,18C 191.007,12.9754 208.673,9.47537 226.5,7.5 Z"/></g>
<g><path style="opacity:1" fill="#0b8b2c" d="M 324.5,194.5 C 308.278,204.141 292.278,203.808 276.5,193.5C 257.144,209.356 237.644,225.023 218,240.5C 217.333,239.5 217.333,238.5 218,237.5C 235.813,219.022 254.313,201.188 273.5,184C 308.254,154.576 343.587,125.909 379.5,98C 382.49,94.1439 382.157,90.6439 378.5,87.5C 372.569,85.0822 366.569,84.9155 360.5,87C 318.395,100.116 282.895,123.283 254,156.5C 237.884,174.961 224.551,195.294 214,217.5C 209.478,226.918 208.478,236.584 211,246.5C 218.31,242.401 221.977,244.401 222,252.5C 211.451,258.379 202.784,266.379 196,276.5C 180.675,301.151 168.008,327.151 158,354.5C 156.404,375.021 152.404,395.021 146,414.5C 140.754,425.063 132.921,428.063 122.5,423.5C 119.593,420.449 118.26,416.783 118.5,412.5C 119.358,402.964 121.191,393.63 124,384.5C 130.218,367.85 137.218,351.516 145,335.5C 156.433,314.41 168.267,293.576 180.5,273C 172.562,273.987 164.562,274.987 156.5,276C 148.5,276.667 140.5,276.667 132.5,276C 119.9,274.067 112.733,266.9 111,254.5C 108.994,226.344 121.494,208.178 148.5,200C 168.064,195.957 186.064,199.457 202.5,210.5C 224.554,157.612 260.554,117.112 310.5,89C 325.356,80.8268 341.022,74.8268 357.5,71C 369.86,68.3446 380.36,71.5113 389,80.5C 391.394,86.2757 392.061,92.2757 391,98.5C 372.466,115.028 353.299,130.862 333.5,146C 342.329,164.35 339.329,180.516 324.5,194.5 Z"/></g>
<g><path style="opacity:1" fill="#138d30" d="M 324.5,194.5 C 351.387,178.081 371.887,155.747 386,127.5C 388.741,120.734 390.741,113.734 392,106.5C 392.778,103.816 394.111,101.483 396,99.5C 397,100.5 398,101.5 399,102.5C 400.657,113.54 398.657,123.874 393,133.5C 370.051,162.784 343.551,188.284 313.5,210C 292.27,224.112 270.603,237.445 248.5,250C 240.242,252.718 236.409,249.885 237,241.5C 240.369,238.075 244.535,236.241 249.5,236C 267.112,227.861 284.445,219.194 301.5,210C 309.89,205.753 317.557,200.587 324.5,194.5 Z"/></g>
<g><path style="opacity:1" fill="#f7fbf8" d="M 159.5,214.5 C 166.508,214.334 173.508,214.5 180.5,215C 186.88,216.407 193.213,217.907 199.5,219.5C 198.605,224.812 197.771,230.145 197,235.5C 185.521,230.345 173.688,226.178 161.5,223C 154.193,222.05 146.86,221.383 139.5,221C 145.868,217.636 152.535,215.47 159.5,214.5 Z"/></g>
<g><path style="opacity:1" fill="#fcfdfc" d="M 129.5,229.5 C 142.696,228.757 155.696,229.924 168.5,233C 177.997,236.61 187.331,240.61 196.5,245C 198.513,245.68 199.846,247.013 200.5,249C 197.782,252.379 194.449,255.046 190.5,257C 179.831,258.667 169.164,260.334 158.5,262C 150.167,262.667 141.833,262.667 133.5,262C 129.501,261.332 126.668,259.165 125,255.5C 123.281,246.168 124.781,237.501 129.5,229.5 Z"/></g>
</svg>
